<svg
    xmlns="http://www.w3.org/2000/svg"
    width="50"
    height="74"
>
    <path
        fill="#FF7500"
        d="M29.889 73.333h-.096a2.63 2.63 0 0 1-2.518-2.335l-5.182-46.426-3.02 23.273a2.629 2.629 0 0 1-4.83 1.064l-5.14-8.152-4.741 7.058-4.365-2.934 4.74-7.057a5.24 5.24 0 0 1 4.44-2.327 5.246 5.246 0 0 1 4.372 2.453l1.25 1.98 4.884-37.64A2.63 2.63 0 0 1 22.291 0h.024a2.63 2.63 0 0 1 2.59 2.338l5.633 50.448 2.241-12.1a2.635 2.635 0 0 1 1.773-2.023 2.622 2.622 0 0 1 2.622.592l3.753 3.555 4.149-11.244 4.933 1.821-5.528 14.987a2.627 2.627 0 0 1-4.275.998l-3.134-2.97-4.587 24.782a2.63 2.63 0 0 1-2.584 2.152l-.012-.003Z"
    />
</svg>
